<svg width="18" height="18" viewBox="0 0 18 18" fill="none" xmlns="http://www.w3.org/2000/svg">
    <path d="M5.10425 12.3971L5.10425 9.48047" stroke="#E11D48" stroke-linecap="round"/>
    <path d="M8.75 12.3971L8.75 5.10547" stroke="#E11D48" stroke-linecap="round"/>
    <path d="M12.3958 12.3945L12.3958 8.01953" stroke="#E11D48" stroke-linecap="round"/>
    <path d="M1.823 8.7513C1.823 5.48584 1.823 3.85311 2.83745 2.83867C3.85189 1.82422 5.48462 1.82422 8.75008 1.82422C12.0155 1.82422 13.6483 1.82422 14.6627 2.83867C15.6772 3.85311 15.6772 5.48584 15.6772 8.7513C15.6772 12.0168 15.6772 13.6495 14.6627 14.6639C13.6483 15.6784 12.0155 15.6784 8.75008 15.6784C5.48462 15.6784 3.85189 15.6784 2.83745 14.6639C1.823 13.6495 1.823 12.0168 1.823 8.7513Z"
          stroke="#E11D48" stroke-linejoin="round"/>
</svg>
