<svg width="18" height="18" viewBox="0 0 18 18" fill="none" xmlns="http://www.w3.org/2000/svg">
<path d="M13.8542 8.01953V7.29036C13.8542 4.5405 13.8542 3.16558 12.9999 2.3113C12.1456 1.45703 10.7707 1.45703 8.02083 1.45703C5.27097 1.45703 3.89604 1.45703 3.04177 2.3113C2.1875 3.16558 2.1875 4.5405 2.1875 7.29036V10.207C2.1875 12.9569 2.1875 14.3318 3.04177 15.1861C3.89604 16.0404 5.27097 16.0404 8.02083 16.0404" stroke="#E11D48" stroke-linecap="round" stroke-linejoin="round"/>
<path d="M15.3126 16.0404L14.0626 14.7904M14.4792 12.707C14.4792 14.0877 13.36 15.207 11.9792 15.207C10.5985 15.207 9.47925 14.0877 9.47925 12.707C9.47925 11.3263 10.5985 10.207 11.9792 10.207C13.36 10.207 14.4792 11.3263 14.4792 12.707Z" stroke="#E11D48" stroke-linecap="round"/>
<path d="M5.10425 5.10547H10.9376M5.10425 8.02214H8.02091" stroke="#E11D48" stroke-linecap="round" stroke-linejoin="round"/>
</svg>
