<svg width="18" height="18" viewBox="0 0 18 18" fill="none" xmlns="http://www.w3.org/2000/svg">
<path d="M1.46013 6.19922L1.45856 10.2074C1.45762 12.6144 1.45715 13.8178 2.20467 14.5657C2.9522 15.3135 4.15567 15.3135 6.56261 15.3136L10.9384 15.3137C13.3442 15.3137 14.547 15.3138 15.2945 14.5665C16.042 13.8191 16.0422 12.6163 16.0427 10.2105L16.0435 6.19922" stroke="#E11D48" stroke-linecap="round" stroke-linejoin="round"/>
<path d="M6.198 4.73958C6.198 3.7155 6.198 3.20345 6.44377 2.83563C6.55017 2.67639 6.68689 2.53967 6.84612 2.43327C7.21395 2.1875 7.72599 2.1875 8.75008 2.1875C9.77417 2.1875 10.2862 2.1875 10.654 2.43327C10.8133 2.53967 10.95 2.67639 11.0564 2.83563C11.3022 3.20345 11.3022 3.7155 11.3022 4.73958" stroke="#E11D48" stroke-linecap="round" stroke-linejoin="round"/>
<path d="M14.583 4.7384L2.91697 4.73828C2.11164 4.73833 1.45857 5.39138 1.4585 6.19671C1.45857 7.80741 2.76472 9.11359 4.37542 9.1137H13.1245C14.7353 9.11361 16.0413 7.80754 16.0414 6.19683C16.0414 5.39148 15.3883 4.73845 14.583 4.7384Z" stroke="#E11D48" stroke-linecap="round" stroke-linejoin="round"/>
<path d="M7.29175 9.11328V9.84245C7.29175 10.1815 7.29175 10.351 7.32902 10.4901C7.43015 10.8676 7.72497 11.1624 8.10241 11.2635C8.2415 11.3008 8.41103 11.3008 8.75008 11.3008C9.08913 11.3008 9.25866 11.3008 9.39775 11.2635C9.77519 11.1624 10.07 10.8676 10.1711 10.4901C10.2084 10.351 10.2084 10.1815 10.2084 9.84245V9.11328" stroke="#E11D48" stroke-linecap="round" stroke-linejoin="round"/>
</svg>
