<svg width="50" height="50" viewBox="0 0 54 54" fill="none" xmlns="http://www.w3.org/2000/svg">
<path d="M6.6875 8.91797V31.2096C6.6875 37.5147 6.6875 40.6672 8.64622 42.6259C10.6049 44.5846 13.7575 44.5846 20.0625 44.5846H46.8125" stroke="#E11D48" stroke-linecap="round" stroke-linejoin="round"/>
<path d="M13.375 31.2096L20.6198 23.9648C22.0555 22.5291 22.7733 21.8113 23.613 21.5744C24.2066 21.407 24.835 21.407 25.4287 21.5744C26.2683 21.8113 26.9862 22.5291 28.4219 23.9648C29.8576 25.4005 30.5754 26.1184 31.4151 26.3553C32.0087 26.5227 32.6371 26.5227 33.2308 26.3553C34.0704 26.1184 34.7883 25.4005 36.224 23.9648L44.5833 15.6055" stroke="#E11D48" stroke-linecap="round" stroke-linejoin="round"/>
</svg>
