<svg width="54" height="54" viewBox="0 0 54 54" fill="none" xmlns="http://www.w3.org/2000/svg">
<path d="M26.7501 31.2096C29.2124 31.2096 31.2084 29.2136 31.2084 26.7513C31.2084 24.289 29.2124 22.293 26.7501 22.293C24.2878 22.293 22.2917 24.289 22.2917 26.7513C22.2917 29.2136 24.2878 31.2096 26.7501 31.2096Z" stroke="#E11D48" stroke-linecap="round" stroke-linejoin="round"/>
<path d="M44.5833 40.1237C47.0456 40.1237 49.0417 38.1276 49.0417 35.6654C49.0417 33.2031 47.0456 31.207 44.5833 31.207C42.1211 31.207 40.125 33.2031 40.125 35.6654C40.125 38.1276 42.1211 40.1237 44.5833 40.1237Z" stroke="#E11D48" stroke-linecap="round" stroke-linejoin="round"/>
<path d="M24.5208 49.0417C26.9831 49.0417 28.9792 47.0456 28.9792 44.5833C28.9792 42.1211 26.9831 40.125 24.5208 40.125C22.0586 40.125 20.0625 42.1211 20.0625 44.5833C20.0625 47.0456 22.0586 49.0417 24.5208 49.0417Z" stroke="#E11D48" stroke-linecap="round" stroke-linejoin="round"/>
<path d="M33.4376 13.3737C35.8999 13.3737 37.8959 11.3776 37.8959 8.91536C37.8959 6.4531 35.8999 4.45703 33.4376 4.45703C30.9753 4.45703 28.9792 6.4531 28.9792 8.91536C28.9792 11.3776 30.9753 13.3737 33.4376 13.3737Z" stroke="#E11D48" stroke-linecap="round" stroke-linejoin="round"/>
<path d="M8.91659 22.2917C11.3789 22.2917 13.3749 20.2956 13.3749 17.8333C13.3749 15.3711 11.3789 13.375 8.91659 13.375C6.45432 13.375 4.45825 15.3711 4.45825 17.8333C4.45825 20.2956 6.45432 22.2917 8.91659 22.2917Z" stroke="#E11D48" stroke-linecap="round" stroke-linejoin="round"/>
<path d="M31.8733 13.093L28.3175 22.5751M29.2481 10.4414L13.1094 16.31M26.1986 31.1751L25.0755 40.1597M30.7402 28.745L40.5965 33.6731M40.5099 37.4785L28.5976 42.7729" stroke="#E11D48" stroke-linecap="round" stroke-linejoin="round"/>
</svg>
