<svg width="27" height="27" viewBox="0 0 27 27" fill="none" xmlns="http://www.w3.org/2000/svg">
<path d="M21.7344 6.12891L21.0436 17.3027C20.8672 20.1576 20.7789 21.585 20.0633 22.6112C19.7095 23.1186 19.254 23.5468 18.7258 23.8686C17.6574 24.5195 16.2272 24.5195 13.3669 24.5195C10.5028 24.5195 9.07082 24.5195 8.00165 23.8674C7.47306 23.545 7.01741 23.1161 6.66374 22.6078C5.94839 21.5799 5.8621 20.1505 5.68951 17.2916L5.01562 6.12891" stroke="white" stroke-linecap="round"/>
<path d="M3.34375 6.13151H23.4063M17.8954 6.13151L17.1345 4.56187C16.6291 3.51921 16.3764 2.99788 15.9405 2.67274C15.8438 2.60062 15.7414 2.53647 15.6343 2.48092C15.1515 2.23047 14.5722 2.23047 13.4135 2.23047C12.2257 2.23047 11.6318 2.23047 11.141 2.49141C11.0323 2.54925 10.9285 2.616 10.8307 2.69098C10.3897 3.02929 10.1434 3.5697 9.65074 4.65052L8.97565 6.13151" stroke="white" stroke-linecap="round"/>
</svg>
