<svg width="27" height="27" viewBox="0 0 27 27" fill="none" xmlns="http://www.w3.org/2000/svg">
<path d="M18.8876 3.53793C19.5422 2.88337 19.8695 2.55609 20.232 2.39958C20.7544 2.1741 21.3466 2.1741 21.869 2.39958C22.2315 2.55609 22.5588 2.88337 23.2134 3.53793C23.8679 4.19249 24.1952 4.51977 24.3517 4.88234C24.5772 5.40469 24.5772 5.99692 24.3517 6.51926C24.1952 6.88183 23.8679 7.20911 23.2134 7.86367L17.6164 13.4607C16.2374 14.8396 15.548 15.5291 14.6844 15.9376C13.8209 16.3461 12.8505 16.4419 10.9098 16.6334L10.0312 16.7201L10.1179 15.8415C10.3094 13.9008 10.4052 12.9304 10.8137 12.0669C11.2222 11.2033 11.9117 10.5139 13.2907 9.13491L18.8876 3.53793Z" stroke="#E11D48" stroke-linejoin="round"/>
<path d="M6.68734 16.7188H4.17952C3.10228 16.7188 2.229 17.592 2.229 18.6693C2.229 19.7465 3.10228 20.6198 4.17952 20.6198H14.7681C15.8453 20.6198 16.7186 21.4931 16.7186 22.5703C16.7186 23.6476 15.8453 24.5208 14.7681 24.5208H12.2603" stroke="#E11D48" stroke-linecap="round" stroke-linejoin="round"/>
</svg>
