<svg width="27" height="27" viewBox="0 0 27 27" fill="none" xmlns="http://www.w3.org/2000/svg">
<path d="M9.87238 13.9391C7.09879 11.8654 5.12222 9.58447 4.04297 8.30216C3.70888 7.90521 3.59941 7.61472 3.53359 7.10302C3.30821 5.3509 3.19552 4.47483 3.70928 3.90929C4.22304 3.34375 5.13159 3.34375 6.94868 3.34375H19.8013C21.6184 3.34375 22.527 3.34375 23.0407 3.90929C23.5545 4.47483 23.4418 5.3509 23.2164 7.10302C23.1506 7.61473 23.0411 7.90523 22.707 8.30216C21.6263 9.58611 19.6457 11.8711 16.8665 13.9474C16.6151 14.1352 16.4493 14.4414 16.4186 14.7809C16.1433 17.8244 15.8894 19.4914 15.7314 20.3347C15.4763 21.6962 13.5457 22.5152 12.5123 23.2461C11.8971 23.6811 11.1506 23.1632 11.0709 22.4898C10.9189 21.2062 10.6327 18.5984 10.3202 14.7809C10.2922 14.4382 10.1258 14.1285 9.87238 13.9391Z" stroke="#E11D48" stroke-linecap="round" stroke-linejoin="round"/>
</svg>
