<svg width="18" height="18" viewBox="0 0 18 18" fill="none" xmlns="http://www.w3.org/2000/svg">
<path d="M15.5441 5.20808L15.1842 4.58348C14.912 4.1111 14.7759 3.87491 14.5443 3.78073C14.3128 3.68655 14.0509 3.76086 13.5271 3.9095L12.6373 4.16011C12.3029 4.23723 11.9521 4.19348 11.6467 4.0366L11.4011 3.89487C11.1393 3.72717 10.9379 3.47991 10.8264 3.18927L10.5829 2.46201C10.4228 1.98075 10.3427 1.74012 10.1521 1.60248C9.96156 1.46484 9.7084 1.46484 9.2021 1.46484H8.38924C7.88294 1.46484 7.62979 1.46484 7.4392 1.60248C7.24862 1.74012 7.16856 1.98075 7.00846 2.46201L6.76495 3.18927C6.65347 3.47991 6.45208 3.72717 6.19025 3.89487L5.9446 4.0366C5.63927 4.19348 5.28843 4.23723 4.95403 4.16011L4.06427 3.9095C3.54049 3.76086 3.27859 3.68655 3.04703 3.78073C2.81546 3.87491 2.67937 4.1111 2.40717 4.58348L2.04726 5.20808C1.79212 5.65087 1.66455 5.87226 1.68931 6.10794C1.71407 6.34362 1.88485 6.53355 2.22642 6.9134L2.97822 7.75391C3.16197 7.98654 3.29242 8.39193 3.29242 8.75639C3.29242 9.12109 3.16201 9.52637 2.97824 9.75903L2.22642 10.5996C1.88486 10.9794 1.71407 11.1693 1.68931 11.405C1.66455 11.6407 1.79213 11.8621 2.04727 12.3049L2.40716 12.9295C2.67935 13.4018 2.81546 13.638 3.04703 13.7322C3.2786 13.8264 3.5405 13.7521 4.06429 13.6034L4.954 13.3528C5.28846 13.2757 5.63936 13.3195 5.94474 13.4764L6.19034 13.6181C6.45212 13.7858 6.65347 14.0331 6.76493 14.3237L7.00846 15.051C7.16856 15.5323 7.24862 15.7729 7.4392 15.9105C7.62979 16.0482 7.88294 16.0482 8.38924 16.0482H9.2021C9.7084 16.0482 9.96156 16.0482 10.1521 15.9105C10.3427 15.7729 10.4228 15.5323 10.5829 15.051L10.8264 14.3237C10.9379 14.0331 11.1392 13.7858 11.401 13.6181L11.6466 13.4764C11.952 13.3195 12.3029 13.2757 12.6373 13.3528L13.5271 13.6034C14.0509 13.7521 14.3127 13.8264 14.5443 13.7322C14.7759 13.638 14.912 13.4018 15.1842 12.9295L15.5441 12.3049C15.7992 11.8621 15.9268 11.6407 15.902 11.405C15.8773 11.1693 15.7065 10.9794 15.3649 10.5996L15.3649 10.5996L14.6131 9.75903C14.4293 9.52637 14.2989 9.12109 14.2989 8.75639C14.2989 8.39193 14.4294 7.98654 14.6131 7.75391L15.3649 6.9134C15.7065 6.53355 15.8773 6.34362 15.902 6.10794C15.9268 5.87226 15.7992 5.65087 15.5441 5.20808Z" stroke="#E11D48" stroke-linecap="round"/>
<path d="M11.3163 8.7513C11.3163 10.1608 10.1737 11.3034 8.76424 11.3034C7.35476 11.3034 6.21216 10.1608 6.21216 8.7513C6.21216 7.34183 7.35476 6.19922 8.76424 6.19922C10.1737 6.19922 11.3163 7.34183 11.3163 8.7513Z" stroke="#E11D48"/>
</svg>
