<svg width="18" height="18" viewBox="0 0 18 18" fill="none" xmlns="http://www.w3.org/2000/svg">
<path d="M8.3855 3.64453C10.4479 3.64453 11.4791 3.64453 12.1198 4.28524C12.7605 4.92594 12.7605 5.95714 12.7605 8.01953C12.7605 13.8529 15.6772 13.8529 15.6772 13.8529H5.27825C5.03911 13.8529 4.91954 13.8529 4.64841 13.7823C4.37728 13.7116 4.33415 13.6875 4.2479 13.6394C3.41659 13.1749 1.823 11.7924 1.823 8.01953C1.823 5.95714 1.823 4.92594 2.4637 4.28524C3.10441 3.64453 4.1356 3.64453 6.198 3.64453" stroke="#E11D48" stroke-linecap="round" stroke-linejoin="round"/>
<path d="M1.823 7.29297V11.668C1.823 13.7304 1.823 14.7616 2.4637 15.4023C3.10441 16.043 4.1356 16.043 6.198 16.043H8.441C10.5034 16.043 11.5346 16.043 12.1753 15.4023C12.5325 15.0451 12.6906 14.5665 12.7605 13.8555" stroke="#E11D48" stroke-linecap="round" stroke-linejoin="round"/>
<path d="M8.3855 2.55078V4.73828C8.3855 5.07803 8.3855 5.2479 8.32999 5.3819C8.25599 5.56057 8.11404 5.70252 7.93537 5.77653C7.80137 5.83203 7.6315 5.83203 7.29175 5.83203C6.952 5.83203 6.78212 5.83203 6.64812 5.77653C6.46946 5.70252 6.32751 5.56057 6.2535 5.3819C6.198 5.2479 6.198 5.07803 6.198 4.73828V2.55078C6.198 2.21103 6.198 2.04116 6.2535 1.90716C6.32751 1.72849 6.46946 1.58654 6.64812 1.51254C6.78212 1.45703 6.952 1.45703 7.29175 1.45703C7.6315 1.45703 7.80137 1.45703 7.93537 1.51254C8.11404 1.58654 8.25599 1.72849 8.32999 1.90716C8.3855 2.04116 8.3855 2.21103 8.3855 2.55078Z" stroke="#E11D48" stroke-linecap="round" stroke-linejoin="round"/>
</svg>
