<svg width="54" height="54" viewBox="0 0 54 54" fill="none" xmlns="http://www.w3.org/2000/svg">
<path d="M10.2084 19.1851L4.45825 18.8444C8.57998 8.25749 20.4138 2.22753 31.9515 5.22558C44.2402 8.41875 51.5394 20.6442 48.2547 32.5318C45.538 42.3642 36.4319 48.8859 26.4109 49.0404" stroke="#E11D48" stroke-linecap="round" stroke-linejoin="round"/>
<path d="M26.7499 49.0404C14.4895 49.0404 4.45825 37.8945 4.45825 24.5195" stroke="#E11D48" stroke-linecap="round" stroke-linejoin="round" stroke-dasharray="0.5 3"/>
<path d="M30.325 21.6696C29.5414 20.8468 27.6202 18.9134 24.5855 20.286C21.5508 21.6586 21.0687 26.0749 25.6591 26.5441C27.7338 26.7562 29.0865 26.298 30.325 27.5939C31.5634 28.8897 31.7935 32.4935 28.6276 33.4647C25.4616 34.4359 23.4103 32.8319 22.8585 32.3302M26.544 17.875V19.6383M26.544 33.7636V35.7083" stroke="#E11D48" stroke-linecap="round" stroke-linejoin="round"/>
</svg>
