<svg width="18" height="18" viewBox="0 0 18 18" fill="none" xmlns="http://www.w3.org/2000/svg">
<path d="M11.3022 5.83333C11.3022 3.8198 9.66987 2.1875 7.65633 2.1875C5.64279 2.1875 4.0105 3.8198 4.0105 5.83333C4.0105 7.84687 5.64279 9.47917 7.65633 9.47917C9.66987 9.47917 11.3022 7.84687 11.3022 5.83333Z" stroke="#E11D48" stroke-linecap="round" stroke-linejoin="round"/>
<path d="M2.552 14.5807C2.552 11.7618 4.83722 9.47656 7.65617 9.47656C8.58586 9.47656 9.4575 9.72512 10.2083 10.1594" stroke="#E11D48" stroke-linecap="round" stroke-linejoin="round"/>
<path d="M12.0312 10.8227C12.0312 10.0793 12.6842 9.47656 13.4896 9.47656C14.295 9.47656 14.9479 10.0793 14.9479 10.8227C14.9479 11.0907 14.8631 11.3404 14.7169 11.5502C14.281 12.1754 13.4896 12.407 13.4896 13.1504V13.487M13.4825 15.3099H13.489" stroke="#E11D48" stroke-linecap="round" stroke-linejoin="round"/>
</svg>
