<svg width="54" height="54" viewBox="0 0 54 54" fill="none" xmlns="http://www.w3.org/2000/svg">
<path d="M16.7188 43.4701C16.7188 41.3175 17.4511 39.1402 19.2398 37.9426C21.3849 36.5063 23.9689 35.668 26.75 35.668C29.5311 35.668 32.1151 36.5063 34.2602 37.9426C36.0489 39.1402 36.7813 41.3175 36.7813 43.4701" stroke="#E11D48" stroke-linecap="round" stroke-linejoin="round"/>
<circle cx="26.7499" cy="24.5221" r="5.57292" stroke="#E11D48" stroke-linecap="round" stroke-linejoin="round"/>
<path d="M39.0105 24.5195C41.4852 24.5195 43.7843 25.3597 45.6923 26.7987C47.3095 28.0185 47.9272 30.0816 47.9272 32.1073V32.3216" stroke="#E11D48" stroke-linecap="round" stroke-linejoin="round"/>
<circle cx="39.0103" cy="14.4896" r="4.45833" stroke="#E11D48" stroke-linecap="round" stroke-linejoin="round"/>
<path d="M14.4897 24.5195C12.015 24.5195 9.71582 25.3597 7.80787 26.7987C6.19062 28.0185 5.573 30.0816 5.573 32.1073V32.3216" stroke="#E11D48" stroke-linecap="round" stroke-linejoin="round"/>
<circle cx="14.4896" cy="14.4896" r="4.45833" stroke="#E11D48" stroke-linecap="round" stroke-linejoin="round"/>
</svg>
