<svg width="18" height="18" viewBox="0 0 18 18" fill="#4F46E5" xmlns="http://www.w3.org/2000/svg">
<path d="M2.1875 8.7437V10.5742C2.1875 12.9803 2.1875 14.1834 2.93499 14.9309C3.68248 15.6784 4.88554 15.6784 7.29167 15.6784H10.2083C12.6145 15.6784 13.8175 15.6784 14.565 14.9309C15.3125 14.1834 15.3125 12.9803 15.3125 10.5742V8.7437C15.3125 7.5178 15.3125 6.90485 15.053 6.37425C14.7935 5.84365 14.3097 5.46734 13.342 4.71471L11.8837 3.58045C10.3783 2.40963 9.62564 1.82422 8.75 1.82422C7.87436 1.82422 7.12169 2.40963 5.61635 3.58045L5.61634 3.58045L4.15801 4.71471L4.15801 4.71472C3.19035 5.46734 2.70652 5.84365 2.44701 6.37425C2.1875 6.90485 2.1875 7.5178 2.1875 8.7437Z" stroke="#2563EB" stroke-linecap="round" stroke-linejoin="round"/>
<path d="M10.9375 15.6771V12.0313C10.9375 11.0001 10.9375 10.4845 10.6171 10.1641C10.2968 9.84375 9.7812 9.84375 8.75 9.84375C7.7188 9.84375 7.2032 9.84375 6.88285 10.1641C6.5625 10.4845 6.5625 11.0001 6.5625 12.0313V15.6771" stroke="#2563EB" stroke-linecap="round" stroke-linejoin="round"/>
</svg>
